#!OML:ASF E:\Style4\Style4.ASF
:FULLY-SPECIFIED
:DEGREES
1402
root 1.24927 17.3742 -1.52454 -1.83825 -13.3581 7.51096
lowerback 9.97612 1.79464 2.13216
upperback 6.17026 2.51844 2.14018
thorax 0.819334 1.26703 0.788136
lowerneck 5.1049 -2.98452 -5.27437
upperneck 2.4551 -4.23166 -7.08958
head -0.13327 -2.1189 -1.24318
rclavicle 1.70955e-014 9.54166e-015
rhumerus 5.41819 -17.547 -57.7254
rradius 63.3654
rwrist 10.8537
rhand -20.8759 6.91191
rfingers 7.12502
rthumb 5.49413 -22.9969
lclavicle 1.70955e-014 9.54166e-015
lhumerus -2.36332 7.19346 41.2408
lradius 67.4487
lwrist -4.83715
lhand -21.3414 28.7854
lfingers 7.12502
lthumb 5.04468 58.7054
rfemur -22.6242 7.46337 5.78701
rtibia 42.8152
rfoot -19.7172 -7.01485
rtoes -19.4852
lfemur -14.4085 8.22896 -30.952
ltibia 36.0646
lfoot -23.7028 10.3944
ltoes -8.4038
1403
root 1.24587 17.3691 -1.52406 -1.86077 -13.6801 7.39408
lowerback 10.0106 1.71654 2.07942
upperback 6.21217 2.40948 2.13485
thorax 0.842057 1.21091 0.821691
lowerneck 5.17589 -2.79387 -5.37426
upperneck 2.28825 -4.00198 -7.0243
head -0.19024 -1.99707 -1.20753
rclavicle 9.14409e-015 3.49861e-014
rhumerus 5.02572 -17.6538 -57.6163
rradius 63.3893
rwrist 10.829
rhand -20.7813 7.07849
rfingers 7.12502
rthumb 5.58548 -22.8279
lclavicle 9.14409e-015 3.49861e-014
lhumerus -2.0049 7.48846 41.448
lradius 67.2295
lwrist -4.74513
lhand -21.2663 28.6935
lfingers 7.12502
lthumb 5.11721 58.6118
rfemur -22.7109 7.60054 5.94826
rtibia 42.8577
rfoot -19.6899 -6.85512
rtoes -19.3718
lfemur -14.4461 8.40571 -30.801
ltibia 36.2208
lfoot -23.6658 10.576
ltoes -8.9052
1404
root 1.24201 17.3644 -1.52224 -1.89812 -14.034 7.34814
lowerback 10.0383 1.67005 1.94098
upperback 6.25942 2.33505 2.1121
thorax 0.871199 1.17009 0.882431
lowerneck 5.11372 -2.62059 -5.41333
upperneck 2.25844 -3.77079 -7.01657
head -0.185955 -1.8824 -1.20318
rclavicle 3.73715e-014 -3.18055e-014
rhumerus 4.48091 -17.7006 -57.381
rradius 63.5511
rwrist 10.6341
rhand -20.7048 7.11372
rfingers 7.12502
rthumb 5.65936 -22.7907
lclavicle 3.73715e-014 -3.18055e-014
lhumerus -1.58936 7.78437 41.6995
lradius 67.0174
lwrist -4.62732
lhand -21.1411 28.7496
lfingers 7.12502
lthumb 5.23815 58.6649
rfemur -22.8089 7.76572 6.02933
rtibia 42.8948
rfoot -19.6527 -6.72651
rtoes -19.7144
lfemur -14.4975 8.60443 -30.7286
ltibia 36.3857
lfoot -23.7035 10.8555
ltoes -9.77569
1405
root 1.23771 17.3625 -1.5164 -1.91813 -14.2108 7.27149
lowerback 10.019 1.56997 1.88394
upperback 6.27656 2.1963 2.05484
thorax 0.899672 1.10007 0.868569
lowerneck 5.11578 -2.47259 -5.38789
upperneck 2.27426 -3.57149 -6.97707
head -0.17917 -1.78399 -1.19837
rclavicle 7.55382e-015 3.81667e-014
rhumerus 3.86422 -17.7241 -57.1314
rradius 63.69
rwrist 10.3987
rhand -20.7382 6.99272
rfingers 7.12502
rthumb 5.62715 -22.9126
lclavicle 7.55382e-015 3.81667e-014
lhumerus -1.20718 7.95793 41.8858
lradius 66.8489
lwrist -4.50502
lhand -21.0387 28.8346
lfingers 7.12502
lthumb 5.337 58.7474
rfemur -22.8293 7.82419 6.15004
rtibia 42.9374
rfoot -19.7067 -6.69254
rtoes -19.8932
lfemur -14.5106 8.608 -30.6317
ltibia 36.5314
lfoot -23.969 10.9451
ltoes -9.46848
1406
root 1.23169 17.3618 -1.50999 -1.90163 -14.2659 7.18036
lowerback 9.93955 1.40717 1.81944
upperback 6.29388 1.97258 1.98269
thorax 0.961507 0.987895 0.852567
lowerneck 5.23662 -2.30086 -5.31547
upperneck 2.13157 -3.36013 -6.95366
head -0.242207 -1.66983 -1.20392
rclavicle 4.29375e-014 4.77083e-014
rhumerus 3.49883 -17.8276 -57.0412
rradius 63.6984
rwrist 10.33
rhand -20.7678 6.85368
rfingers 7.12502
rthumb 5.59851 -23.0524
lclavicle 4.29375e-014 4.77083e-014
lhumerus -0.916311 8.14484 42.0001
lradius 66.7141
lwrist -4.3521
lhand -20.8918 28.7675
lfingers 7.12502
lthumb 5.4788 58.6767
rfemur -22.8354 7.78814 6.28474
rtibia 42.9889
rfoot -19.7834 -6.60658
rtoes -19.677
lfemur -14.5297 8.53525 -30.5147
ltibia 36.6505
lfoot -24.1356 10.9219
ltoes -8.83733
1407
root 1.22411 17.3588 -1.50775 -1.93938 -14.5347 7.20245
lowerback 9.93213 1.31147 1.57352
upperback 6.33447 1.82439 1.87552
thorax 1.00323 0.908703 0.893488
lowerneck 5.27057 -2.09919 -5.17663
upperneck 2.00342 -3.09704 -6.98489
head -0.28823 -1.53159 -1.23998
rclavicle -3.4191e-014 2.38542e-014
rhumerus 3.19851 -17.9537 -56.9902
rradius 63.7304
rwrist 10.3065
rhand -20.6567 6.72184
rfingers 7.12502
rthumb 5.7058 -23.1813
lclavicle -3.4191e-014 2.38542e-014
lhumerus -0.688692 8.3869 42.074
lradius 66.6182
lwrist -4.32428
lhand -20.8578 28.6758
lfingers 7.12502
lthumb 5.51163 58.5841
rfemur -22.9201 7.84648 6.30309
rtibia 43.0554
rfoot -19.8024 -6.46603
rtoes -19.7478
lfemur -14.54 8.67081 -30.5042
ltibia 36.76
lfoot -24.1202 11.0288
ltoes -9.08592
1408
root 1.21558 17.3546 -1.50823 -2.00047 -15.0386 7.20605
lowerback 9.96031 1.32447 1.34976
upperback 6.40369 1.8213 1.75966
thorax 1.05634 0.902503 0.899923
lowerneck 5.2689 -1.93397 -5.11075
upperneck 1.8848 -2.88211 -6.91398
head -0.322318 -1.41968 -1.23187
rclavicle 3.29983e-014 -6.36111e-015
rhumerus 2.78022 -18.0612 -56.7623
rradius 63.8069
rwrist 10.153
rhand -20.7454 6.58259
rfingers 7.12502
rthumb 5.62016 -23.3229
lclavicle 3.29983e-014 -6.36111e-015
lhumerus -0.354032 8.56625 42.1867
lradius 66.5278
lwrist -4.39153
lhand -21.0191 29.0357
lfingers 7.12502
lthumb 5.35587 58.948
rfemur -23.0828 8.07122 6.34539
rtibia 43.1345
rfoot -19.7937 -6.24593
rtoes -19.7421
lfemur -14.5535 9.00384 -30.4641
ltibia 36.8769
lfoot -24.1294 11.2844
ltoes -9.80558
1409
root 1.20612 17.3489 -1.50817 -2.0928 -15.5906 7.16527
lowerback 10.0076 1.3645 1.14418
upperback 6.48965 1.8552 1.67463
thorax 1.11601 0.914459 0.924633
lowerneck 5.28543 -1.78403 -5.06639
upperneck 1.75762 -2.69086 -6.86923
head -0.362484 -1.31887 -1.22795
rclavicle -2.90226e-014 7.95139e-015
rhumerus 2.33091 -18.1573 -56.4751
rradius 63.9282
rwrist 10.0729
rhand -20.8943 6.29389
rfingers 7.12502
rthumb 5.47637 -23.6153
lclavicle -2.90226e-014 7.95139e-015
lhumerus 0.0742282 8.81925 42.4201
lradius 66.3814
lwrist -4.45042
lhand -21.1026 29.1846
lfingers 7.12502
lthumb 5.27531 59.099
rfemur -23.2271 8.35892 6.44961
rtibia 43.2256
rfoot -19.7721 -6.01654
rtoes -19.8277
lfemur -14.5303 9.37095 -30.355
ltibia 36.9905
lfoot -24.3928 11.327
ltoes -9.05474
1410
root 1.19717 17.3431 -1.50665 -2.20836 -15.8238 7.1719
lowerback 10.0952 1.29454 0.91692
upperback 6.53796 1.74425 1.58289
thorax 1.11536 0.85348 0.965715
lowerneck 5.33685 -1.62256 -5.07032
upperneck 1.65079 -2.4879 -6.7987
head -0.400837 -1.21293 -1.2082
rclavicle 1.19271e-015 2.38542e-014
rhumerus 1.86853 -18.3033 -56.2125
rradius 64.0414
rwrist 10.1247
rhand -20.854 6.33899
rfingers 7.12502
rthumb 5.51532 -23.5692
lclavicle 1.19271e-015 2.38542e-014
lhumerus 0.462215 9.04973 42.6395
lradius 66.2171
lwrist -4.51665
lhand -21.0469 29.1781
lfingers 7.12502
lthumb 5.3291 59.0911
rfemur -23.2355 8.43662 6.49855
rtibia 43.317
rfoot -19.8306 -5.84391
rtoes -19.4776
lfemur -14.4671 9.49635 -30.3017
ltibia 37.1093
lfoot -24.6502 11.3497
ltoes -8.6962
1411
root 1.1895 17.3383 -1.50418 -2.29883 -15.6586 7.16796
lowerback 10.1583 1.0937 0.759245
upperback 6.57016 1.46631 1.49361
thorax 1.11565 0.711279 0.985849
lowerneck 5.38262 -1.46307 -5.13752
upperneck 1.55755 -2.28892 -6.64211
head -0.43192 -1.11073 -1.15126
rclavicle 4.17448e-014 -1.59028e-015
rhumerus 1.48029 -18.4844 -55.9289
rradius 64.1132
rwrist 10.1944
rhand -20.7436 6.35645
rfingers 7.12502
rthumb 5.62194 -23.549
lclavicle 4.17448e-014 -1.59028e-015
lhumerus 0.834201 9.29202 42.8723
lradius 66.0591
lwrist -4.61921
lhand -20.9767 29.0543
lfingers 7.12502
lthumb 5.39688 58.9656
rfemur -23.103 8.26316 6.55131
rtibia 43.4056
rfoot -19.9468 -5.79339
rtoes -19.0339
lfemur -14.3942 9.30249 -30.2578
ltibia 37.233
lfoot -24.7097 11.4285
ltoes -9.05618
1412
root 1.18005 17.3352 -1.50434 -2.3736 -15.6176 7.1247
lowerback 10.2071 0.921333 0.575383
upperback 6.63105 1.22256 1.41661
thorax 1.15326 0.58486 1.03125
lowerneck 5.42436 -1.28299 -5.18964
upperneck 1.39858 -2.06608 -6.49429
head -0.483467 -0.993913 -1.10017
rclavicle -3.06128e-014 -2.38542e-014
rhumerus 1.19318 -18.5809 -55.6456
rradius 64.1771
rwrist 10.214
rhand -20.7052 6.41916
rfingers 7.12502
rthumb 5.65895 -23.4853
lclavicle -3.06128e-014 -2.38542e-014
lhumerus 1.13862 9.63318 43.1059
lradius 65.9363
lwrist -4.69884
lhand -20.961 28.7903
lfingers 7.12502
lthumb 5.41201 58.7012
rfemur -23.0329 8.21555 6.65941
rtibia 43.4971
rfoot -20.0398 -5.77272
rtoes -18.872
lfemur -14.353 9.18436 -30.1598
ltibia 37.354
lfoot -24.7322 11.4375
ltoes -8.88386
1413
root 1.168 17.3307 -1.50506 -2.39684 -15.7999 7.06559
lowerback 10.2269 0.841013 0.367069
upperback 6.65733 1.09866 1.32904
thorax 1.16927 0.517795 1.06878
lowerneck 5.48122 -1.11315 -5.24271
upperneck 1.3035 -1.85275 -6.29849
head -0.517549 -0.884773 -1.03414
rclavicle -2.78299e-014 1.59028e-014
rhumerus 0.773468 -18.5894 -55.2884
rradius 64.3599
rwrist 10.0895
rhand -20.67 6.28158
rfingers 7.12502
rthumb 5.693 -23.6219
lclavicle -2.78299e-014 1.59028e-014
lhumerus 1.4061 9.77875 43.231
lradius 65.8385
lwrist -4.66876
lhand -21.0398 28.74
lfingers 7.12502
lthumb 5.33595 58.6529
rfemur -23.0891 8.27559 6.78532
rtibia 43.5758
rfoot -20.0503 -5.69276
rtoes -18.8345
lfemur -14.3748 9.26749 -30.0376
ltibia 37.4786
lfoot -24.7428 11.4504
ltoes -8.7264
1414
root 1.15721 17.3262 -1.50448 -2.4169 -15.929 7.04358
lowerback 10.2491 0.754836 0.180103
upperback 6.64745 0.969633 1.1976
thorax 1.14793 0.449968 1.04906
lowerneck 5.56721 -0.956828 -5.28616
upperneck 1.22627 -1.6571 -6.0508
head -0.551123 -0.785248 -0.953405
rclavicle -4.81059e-014 -6.36111e-015
rhumerus 0.266344 -18.5725 -54.8998
rradius 64.5731
rwrist 9.93182
rhand -20.7438 6.09681
rfingers 7.12502
rthumb 5.62171 -23.8086
lclavicle -4.81059e-014 -6.36111e-015
lhumerus 1.735 9.79808 43.2552
lradius 65.7289
lwrist -4.45227
lhand -21.0529 28.807
lfingers 7.12502
lthumb 5.32329 58.7201
rfemur -23.1311 8.24997 6.86319
rtibia 43.6468
rfoot -20.077 -5.61338
rtoes -19.0534
lfemur -14.4014 9.30649 -29.966
ltibia 37.613
lfoot -24.802 11.5546
ltoes -9.24517
